<svg width="1200" height="630" viewBox="0 0 1200 630" fill="none" xmlns="http://www.w3.org/2000/svg" role="img" aria-labelledby="title desc">
  <title id="title">Bali Deals</title>
  <desc id="desc">Canggu food promos, happy hours, drink specials, and events.</desc>
  <rect width="1200" height="630" fill="#F7F3EC"/>
  <rect x="56" y="56" width="1088" height="518" fill="#FFFDF8" stroke="#221A14" stroke-width="4"/>
  <circle cx="998" cy="169" r="88" fill="#F2C14E"/>
  <path d="M0 456C127 392 222 409 337 450C456 493 573 544 726 488C858 439 959 340 1200 371V630H0V456Z" fill="#2D6A4F"/>
  <path d="M0 513C169 470 291 485 419 529C555 575 691 607 821 549C923 504 1014 442 1200 461V630H0V513Z" fill="#1F3D34"/>
  <text x="104" y="171" fill="#221A14" font-family="Inter, Arial, sans-serif" font-size="36" font-weight="700" letter-spacing="8">CANGGU, BALI</text>
  <text x="100" y="295" fill="#221A14" font-family="Inter, Arial, sans-serif" font-size="108" font-weight="800">Bali Deals</text>
  <text x="108" y="374" fill="#50433A" font-family="Inter, Arial, sans-serif" font-size="40" font-weight="500">Food promos · Happy hours · Events</text>
  <g transform="translate(104 438)">
    <rect width="205" height="58" fill="#E85D75"/>
    <text x="28" y="38" fill="#FFFDF8" font-family="Inter, Arial, sans-serif" font-size="24" font-weight="800">630 deals</text>
  </g>
  <g transform="translate(333 438)">
    <rect width="214" height="58" fill="#2D6A4F"/>
    <text x="28" y="38" fill="#FFFDF8" font-family="Inter, Arial, sans-serif" font-size="24" font-weight="800">266 places</text>
  </g>
</svg>
